<?xml version="1.0" encoding="UTF-8" standalone="no"?>
<!DOCTYPE svg PUBLIC "-//W3C//DTD SVG 1.1//EN" "http://www.w3.org/Graphics/SVG/1.1/DTD/svg11.dtd">
<svg width="100%" height="100%" viewBox="0 0 620 124" version="1.1" xmlns="http://www.w3.org/2000/svg" xmlns:xlink="http://www.w3.org/1999/xlink" xml:space="preserve" xmlns:serif="http://www.serif.com/" style="fill-rule:evenodd;clip-rule:evenodd;stroke-linejoin:round;stroke-miterlimit:2;">
    <g transform="matrix(1,0,0,1,-51,-10.2593)">
        <path d="M465.718,91.76L450.276,52.94L434.723,52.94L458.78,106.192L447.255,135.168L460.794,135.168L495.929,52.94L480.488,52.94L465.718,91.76ZM302.009,135.168L302.009,101.164C306.599,107.757 313.651,110.775 321.263,110.775C338.609,110.775 349.117,97.473 349.117,81.466C349.117,64.787 338.162,51.709 321.375,51.709C312.979,51.709 306.039,55.173 302.009,61.432L302.009,52.94L288.26,52.94L288.26,135.168L302.009,135.168ZM367.244,135.168L367.244,101.164C371.833,107.757 378.885,110.775 386.497,110.775C403.844,110.775 414.351,97.473 414.351,81.466C414.351,64.787 403.396,51.709 386.609,51.709C378.214,51.709 371.273,55.173 367.244,61.432L367.244,52.94L353.494,52.94L353.494,135.168L367.244,135.168ZM140.198,42.167L140.198,47.746C140.198,76.305 117.046,99.457 88.486,99.457L82.908,99.457L82.908,131.365L172.106,131.365L172.106,42.167L140.198,42.167ZM587.116,109.544L587.116,52.94L573.367,52.94L573.367,109.544L587.116,109.544ZM432.702,109.544L432.702,28.658L418.953,28.658L418.953,109.544L432.702,109.544ZM226.376,109.544L232.082,94.215L266.546,94.215L272.476,109.544L287.134,109.544L256.699,31.232L241.817,31.232L211.605,109.544L226.376,109.544ZM613.187,63.444L634.797,63.444L634.797,109.544L648.77,109.544L648.77,63.444L662.544,63.444L662.544,52.94L648.77,52.94L648.77,47.003C648.77,41.627 651.57,38.939 655.043,38.939C658.516,38.939 660.644,40.731 660.644,44.315C660.644,44.982 660.532,45.653 660.308,46.212L671.373,46.212C671.82,44.982 671.932,43.417 671.932,43.081C671.932,34.919 666.679,27.54 654.483,27.54C646.977,27.54 639.062,30.184 636.054,39.815C634.795,33.051 629.441,27.54 618.901,27.54C609.387,27.54 599.214,31.788 599.214,49.127L599.214,52.94L590.822,52.94L590.822,63.444L599.214,63.444L599.214,109.544L613.187,109.544L613.187,63.444ZM568.206,70.332C568.206,48.799 551.211,31.232 527.593,31.232L499.852,31.232L499.852,109.544L527.593,109.544C551.211,109.544 568.206,91.865 568.206,70.332ZM140.198,42.167L140.198,10.259L51,10.259L51,99.457L82.908,99.457L82.908,93.879C82.908,65.32 106.06,42.167 134.62,42.167L140.198,42.167ZM335.256,81.361C335.256,91.096 329.323,99.264 318.912,99.264C308.726,99.264 301.673,91.767 301.673,80.801C301.673,69.6 309.173,63.22 318.576,63.22C328.875,63.22 335.256,71.168 335.256,81.354L335.256,81.361ZM400.49,81.361C400.49,91.096 394.557,99.264 384.147,99.264C373.96,99.264 366.908,91.767 366.908,80.801C366.908,69.6 374.408,63.22 383.811,63.22C394.109,63.22 400.49,71.168 400.49,81.354L400.49,81.361ZM553.562,70.332C553.562,85.584 542.704,98.145 527.593,98.145L514.161,98.145L514.161,42.631L527.593,42.631C542.704,42.631 553.562,55.08 553.562,70.332ZM262.405,82.592L236.11,82.592L249.314,45.778L262.405,82.592ZM634.797,52.94L634.797,49.127C634.797,48.111 634.832,47.14 634.899,46.212L624.726,46.212C624.95,45.653 625.062,44.982 625.062,44.315C625.062,40.731 622.933,38.939 619.461,38.939C615.988,38.939 613.187,41.627 613.187,47.003L613.187,52.94L634.797,52.94ZM571.353,36.148C571.353,41.068 575.042,44.757 580.297,44.757C585.552,44.757 589.466,41.068 589.466,36.148C589.466,31.229 585.552,27.428 580.297,27.428C575.042,27.428 571.353,31.229 571.353,36.148Z" style="fill:white;"/>
    </g>
</svg>
