<?xml version="1.0" encoding="UTF-8" standalone="no"?>
<!DOCTYPE svg PUBLIC "-//W3C//DTD SVG 1.1//EN" "http://www.w3.org/Graphics/SVG/1.1/DTD/svg11.dtd">
<svg width="100%" height="100%" viewBox="0 0 26 26" version="1.1" xmlns="http://www.w3.org/2000/svg" xmlns:xlink="http://www.w3.org/1999/xlink" xml:space="preserve" xmlns:serif="http://www.serif.com/" style="fill-rule:evenodd;clip-rule:evenodd;stroke-linejoin:round;stroke-miterlimit:2;">
    <g transform="matrix(1,0,0,1,-547,0)">
        <g id="icon_ai" transform="matrix(1.11305,0,0,1.10552,-63.3098,-40.3311)">
            <rect x="548.32" y="36.482" width="23.359" height="23.518" style="fill:none;"/>
            <g transform="matrix(0.89843,0,0,0.904553,229.715,-36.3458)">
                <path d="M376.62,100.913C376.653,100.901 376.676,100.865 376.675,100.824C376.674,100.783 376.65,100.748 376.616,100.738C375.159,100.279 374.214,99.143 373.593,97.178C373.581,97.14 373.546,97.114 373.506,97.114C373.466,97.114 373.431,97.14 373.419,97.178C372.84,98.984 371.947,100.207 370.39,100.732C370.356,100.743 370.333,100.779 370.333,100.82C370.332,100.86 370.356,100.896 370.389,100.908C371.847,101.415 372.85,102.478 373.424,104.446C373.436,104.485 373.471,104.511 373.511,104.512C373.551,104.513 373.587,104.487 373.599,104.449C374.152,102.77 374.987,101.509 376.62,100.913ZM371.149,92.969C371.216,92.945 371.261,92.872 371.259,92.791C371.257,92.709 371.209,92.639 371.141,92.618C368.228,91.701 366.337,89.428 365.096,85.499C365.072,85.423 365.001,85.371 364.921,85.371C364.841,85.371 364.771,85.423 364.747,85.499C363.589,89.111 361.803,91.557 358.689,92.607C358.622,92.63 358.575,92.701 358.575,92.782C358.574,92.864 358.621,92.935 358.688,92.958C361.603,93.974 363.61,96.098 364.758,100.036C364.781,100.113 364.851,100.166 364.931,100.167C365.011,100.168 365.083,100.117 365.107,100.041C366.214,96.682 367.884,94.161 371.149,92.969ZM376.62,84.793C376.653,84.781 376.676,84.744 376.675,84.703C376.674,84.663 376.65,84.628 376.616,84.617C375.159,84.159 374.214,83.022 373.593,81.058C373.581,81.019 373.546,80.994 373.506,80.994C373.466,80.994 373.431,81.019 373.419,81.058C372.84,82.864 371.947,84.086 370.39,84.612C370.356,84.623 370.333,84.659 370.333,84.699C370.332,84.74 370.356,84.776 370.389,84.787C371.847,85.295 372.85,86.357 373.424,88.326C373.436,88.365 373.471,88.391 373.511,88.392C373.551,88.392 373.587,88.367 373.599,88.328C374.152,86.649 374.987,85.389 376.62,84.793Z" style="fill:rgb(231,181,111);"/>
            </g>
        </g>
    </g>
</svg>
