<?xml version="1.0" encoding="UTF-8" standalone="no"?>
<!DOCTYPE svg PUBLIC "-//W3C//DTD SVG 1.1//EN" "http://www.w3.org/Graphics/SVG/1.1/DTD/svg11.dtd">
<svg width="100%" height="100%" viewBox="0 0 26 26" version="1.1" xmlns="http://www.w3.org/2000/svg" xmlns:xlink="http://www.w3.org/1999/xlink" xml:space="preserve" xmlns:serif="http://www.serif.com/" style="fill-rule:evenodd;clip-rule:evenodd;stroke-linejoin:round;stroke-miterlimit:2;">
    <g transform="matrix(1,0,0,1,-630,0)">
        <g id="icon_folder" transform="matrix(1.11305,0,0,1.10552,19.6902,-40.3311)">
            <rect x="548.32" y="36.482" width="23.359" height="23.518" style="fill:none;"/>
            <g transform="matrix(0.0333743,0,0,0.0336018,479.802,62.1945)">
                <path d="M2683.56,-355.47C2690.98,-382.996 2674.65,-405.344 2647.12,-405.344L2283.81,-405.344C2256.28,-405.344 2227.92,-382.996 2220.5,-355.47L2167.28,-157.874C2159.87,-130.348 2176.2,-119.148 2203.72,-119.148L2567.03,-119.148C2594.56,-119.148 2622.93,-130.348 2630.34,-157.874L2683.56,-355.47ZM2621,-466C2615.79,-504.093 2591.17,-524.582 2552,-530L2361.84,-530C2359.43,-530 2357.18,-531.174 2355.79,-533.145C2347.41,-545.094 2318,-587 2318,-587C2307.63,-601.943 2291.61,-608.418 2271,-608L2197.31,-608C2193.43,-608 2189.55,-607.692 2185.71,-607.079C2152.11,-601.74 2131.68,-582.136 2123.6,-549.115C2121.66,-541.116 2120.68,-532.914 2120.68,-524.683C2120.64,-485.68 2120.64,-304 2120.64,-304C2138.06,-408.346 2178.41,-462.049 2241.35,-465.91C2242.2,-465.961 2243.06,-465.986 2243.91,-465.986C2264.31,-466 2621,-466 2621,-466Z" style="fill:rgb(231,181,111);"/>
            </g>
        </g>
    </g>
</svg>
